<svg width="32" height="32" viewBox="0 0 32 32" fill="none" xmlns="http://www.w3.org/2000/svg">
<path d="M22 23H10C7.243 23 5 20.757 5 18C5 15.986 6.211 14.199 8.023 13.421C8.319 9.831 11.335 7 15 7C18.521 7 21.442 9.612 21.929 13H22C24.757 13 27 15.243 27 18C27 20.757 24.757 23 22 23ZM15 9C12.243 9 10 11.243 10 14L10.023 14.911L9.255 15.108C7.927 15.449 6.999 16.638 6.999 18C6.999 19.654 8.345 21 9.999 21H21.999C23.653 21 24.999 19.654 24.999 18C24.999 16.346 23.653 15 21.999 15H19.999V14C19.999 11.243 17.756 9 14.999 9H15Z" fill="white"/>
</svg>
