<svg width="32" height="32" viewBox="0 0 32 32" fill="none" xmlns="http://www.w3.org/2000/svg">
<path d="M10 20L11.5 21.5L14 19V24H16V19L18.5 21.5L20 20L15 15L10 20Z" fill="white"/>
<path d="M22 13H21.929C21.443 9.612 18.521 7 15 7C11.335 7 8.319 9.831 8.023 13.421C6.211 14.199 5 15.986 5 18C5 20.757 7.243 23 10 23V21C8.346 21 7 19.654 7 18C7 16.639 7.928 15.449 9.256 15.108L10.024 14.911L10.001 14C10.001 11.243 12.244 9 15.001 9C17.758 9 20.001 11.243 20.001 14V15H22.001C23.655 15 25.001 16.346 25.001 18C25.001 19.654 23.655 21 22.001 21H21.001V23H22.001C24.758 23 27.001 20.757 27.001 18C27.001 15.243 24.757 13 22 13Z" fill="white"/>
</svg>
