<svg width="32" height="32" viewBox="0 0 32 32" fill="none" xmlns="http://www.w3.org/2000/svg">
<path d="M16 10C21.558 10 24.078 14.333 24.842 15.999C24.075 17.673 21.555 22 16 22C10.445 22 7.922 17.667 7.158 16.001C7.925 14.327 10.445 10 16 10ZM16 8C7.673 8 5 16 5 16C5 16 7.673 24 16 24C24.327 24 27 16 27 16C27 16 24.327 8 16 8Z" fill="white"/>
<path d="M16 20C13.794 20 12 18.206 12 16C12 13.794 13.794 12 16 12C18.206 12 20 13.794 20 16C20 18.206 18.206 20 16 20ZM16 14C14.897 14 14 14.897 14 16C14 17.103 14.897 18 16 18C17.103 18 18 17.103 18 16C18 14.897 17.103 14 16 14Z" fill="white"/>
</svg>
