<svg width="32" height="32" viewBox="0 0 32 32" fill="none" xmlns="http://www.w3.org/2000/svg">
<path d="M13 5L12.299 7.802C11.752 8.049 11.236 8.35 10.753 8.697L7.973 7.902L4.973 13.098L7.045 15.101C7.016 15.397 7 15.696 7 16C7 16.304 7.016 16.603 7.045 16.899L4.973 18.902L7.973 24.098L10.753 23.303C11.235 23.65 11.752 23.95 12.299 24.198L13 27H19L19.701 24.198C20.248 23.951 20.764 23.65 21.247 23.303L24.027 24.098L27.027 18.902L24.955 16.899C24.984 16.603 25 16.304 25 16C25 15.696 24.984 15.397 24.955 15.101L27.027 13.098L24.027 7.902L21.247 8.697C20.765 8.35 20.248 8.05 19.701 7.802L19 5H13ZM11.136 10.887L11.923 10.321C12.301 10.049 12.705 9.815 13.124 9.625L14.006 9.226L14.563 7H17.44L17.997 9.226L18.879 9.625C19.298 9.814 19.702 10.048 20.08 10.321L20.867 10.887L23.078 10.254L24.516 12.745L22.871 14.335L22.966 15.298C22.99 15.537 23.002 15.773 23.002 16C23.002 16.227 22.99 16.463 22.966 16.701L22.87 17.664L24.515 19.255L23.077 21.746L20.866 21.114L20.079 21.68C19.701 21.952 19.297 22.186 18.878 22.376L17.996 22.775L17.439 25.001H14.562L14.005 22.775L13.123 22.376C12.704 22.187 12.3 21.952 11.922 21.68L11.135 21.114L8.924 21.746L7.486 19.255L9.131 17.664L9.035 16.701C9.011 16.464 8.999 16.228 8.999 16C8.999 15.772 9.011 15.537 9.035 15.298L9.13 14.335L7.485 12.745L8.923 10.254L11.134 10.887H11.136Z" fill="white"/>
<path d="M16 14C17.103 14 18 14.897 18 16C18 17.103 17.103 18 16 18C14.897 18 14 17.103 14 16C14 14.897 14.897 14 16 14ZM16 12C13.791 12 12 13.791 12 16C12 18.209 13.791 20 16 20C18.209 20 20 18.209 20 16C20 13.791 18.209 12 16 12Z" fill="white"/>
</svg>
